<svg width="194" height="61" viewBox="0 0 194 61" fill="none" xmlns="http://www.w3.org/2000/svg">
<path d="M190.648 31.6634C190.455 31.6634 190.257 31.7375 190.087 31.9077C187.238 34.7482 180.606 39.7284 169.13 39.7125C157.572 39.6956 150.955 34.7254 148.118 31.8876C147.947 31.7174 147.75 31.6425 147.558 31.6425C147.07 31.642 146.613 32.1206 146.727 32.7482C148.118 40.459 154.878 53.0831 169.11 53.1032C183.239 53.1229 190.06 40.5053 191.475 32.7721C191.59 32.1448 191.136 31.664 190.648 31.6634ZM188.755 35.3389C187.642 38.9222 185.822 41.8725 183.344 44.6698C181.64 46.5928 179.285 48.1385 177.144 49.1907C174.702 50.39 171.999 50.9961 169.11 50.9917C166.199 50.9878 163.48 50.3746 161.028 49.1684C158.88 48.1123 156.435 46.5394 154.733 44.6142C152.265 41.8213 150.832 38.9965 149.555 35.4623C152.715 38.2714 159.127 41.5867 169.021 41.6007C178.848 41.6139 185.584 38.1535 188.755 35.3389Z" fill="white"/>
<path d="M157.187 28.016C152.094 28.2049 155.774 24.2494 152.451 24.2447C151.07 24.2427 149.023 27.6197 149.178 28.7364C149.394 30.2942 155.569 32.6165 156.996 33.1019C157.573 33.2983 158.192 33.2936 158.763 33.0827C160.609 32.4017 162.785 30.8237 162.786 29.9233C162.79 27.1937 159.446 27.9322 157.187 28.016Z" fill="white"/>
<path d="M157.87 19.3582C157.649 19.3577 157.438 19.2155 157.342 18.9776L150.141 0.892675C150.013 0.571022 150.146 0.195452 150.436 0.0541992C150.728 -0.0876369 151.068 0.0580921 151.197 0.380524L158.398 18.4649C158.526 18.787 158.394 19.1627 158.102 19.304C158.026 19.3409 157.947 19.3582 157.87 19.3582Z" fill="white"/>
<path d="M155.48 20.4213C155.342 20.4213 155.205 20.3679 155.095 20.2586L141.789 7.05382C141.552 6.81892 141.533 6.41635 141.746 6.15531C141.958 5.8934 142.322 5.87194 142.559 6.10713L155.866 19.3118C156.102 19.5461 156.122 19.9493 155.909 20.2103C155.795 20.3502 155.638 20.4221 155.48 20.4213Z" fill="white"/>
<path d="M161.995 23.2818C161.115 23.241 161.246 23.1621 161.247 22.0435C161.249 20.8381 160.643 20.0181 159.314 20.0167C156.965 20.0138 153.526 24.6213 155.157 26.1896C156.702 27.6746 159.133 26.8108 163.864 27.4357C167.276 27.8861 171.311 26.4934 169.579 24.8286C168.668 23.9527 164.814 23.4145 161.995 23.2818Z" fill="white"/>
<path d="M166.112 19.0045C170.065 19.0103 165.338 21.359 171.737 21.3675C173.009 21.3695 175.682 23.2742 174.123 24.3254C172.132 25.6686 170.945 23.9899 168.14 23.3846C165.543 22.8248 163.008 22.6018 162.444 22.0367C161.086 20.6751 164.112 19.0017 166.112 19.0045Z" fill="white"/>
<path d="M169.198 20.2084C168.272 19.0755 171.187 17.6987 173.441 18.4265C176.973 19.5662 180.377 21.3027 180.306 23.2492C180.276 24.0912 179.449 25.2971 178.267 25.2542C176.023 25.1727 175.163 21.0541 173.282 20.9853C171.71 20.9282 169.997 21.1874 169.198 20.2084Z" fill="white"/>
<path d="M193.223 23.6471C191.914 24.7762 188.289 23.1396 187.328 22.6737C187.199 22.6114 187.153 22.4539 187.222 22.3281C190.378 16.6173 185.744 10.1277 186.34 13.0396C186.942 15.9899 183.463 18.5488 182.079 20.6667C181.249 21.9351 181.068 25.2966 181.727 25.6153C182.071 25.7822 182.451 25.5605 182.451 25.1788C182.452 25.0138 182.646 22.5545 183.468 22.0648C184.22 21.6162 183.606 23.5744 183.19 24.7387C183.044 25.1485 183.35 25.5791 183.785 25.5767C184.413 25.5728 185.188 25.5257 185.463 25.5689C187.849 25.947 185.635 27.07 184.705 27.069C184.381 27.0681 184.33 27.5537 184.57 27.794C184.858 28.0834 185.645 28.4516 186.035 28.5139C191.043 29.3075 194.739 22.3407 193.223 23.6471Z" fill="white"/>
<path d="M159.561 36.7862C159.2 36.7862 158.9 36.4996 158.887 36.1344C158.874 35.7615 159.166 35.4487 159.539 35.4355C160.258 35.4099 160.507 35.2934 160.837 35.1006C160.876 35.0015 160.923 34.8038 160.957 34.6661C161.072 34.19 161.215 33.5979 161.637 33.203C162.466 32.4245 163.202 32.3603 164.088 32.5512C164.254 31.9941 164.588 31.4543 164.897 31.2107C165.586 30.6662 166.531 30.5516 167.531 30.865C167.821 30.2289 168.464 29.7266 169.162 29.479C170.221 29.1026 171.109 29.3838 171.735 29.8078C172.116 29.0745 172.814 28.1798 174.011 27.9394C175.749 27.5904 176.791 28.1625 177.344 28.8441C177.896 28.4001 178.721 27.9146 179.858 27.938C182.1 27.9681 182.771 28.9908 183.309 29.8117C183.397 29.9464 183.485 30.081 183.582 30.2116C183.662 30.3192 183.954 30.4057 184.236 30.4894C185.052 30.7312 186.285 31.096 186.857 32.959C186.967 33.316 186.767 33.6935 186.411 33.8036C186.054 33.9135 185.676 33.7124 185.566 33.3561C185.207 32.1863 184.579 32.0002 183.851 31.7851C183.381 31.6452 182.846 31.4871 182.497 31.017C182.384 30.8659 182.281 30.7089 182.178 30.5531C181.706 29.831 181.365 29.3102 179.838 29.2893C179.83 29.2888 179.82 29.2888 179.81 29.2888C178.527 29.2868 177.726 30.3589 177.718 30.3697C177.56 30.5845 177.291 30.6877 177.028 30.632C176.768 30.5759 176.564 30.373 176.509 30.1116C176.461 29.9147 176.114 28.895 174.277 29.2645C173.065 29.5077 172.656 31.1296 172.652 31.1464C172.592 31.4094 172.379 31.611 172.113 31.6587C171.845 31.706 171.578 31.5895 171.43 31.3645C171.362 31.2649 170.709 30.3627 169.614 30.7524C169.073 30.9449 168.66 31.3761 168.732 31.6755C168.794 31.9352 168.696 32.2078 168.484 32.3697C168.272 32.5319 167.983 32.5526 167.748 32.4239C166.934 31.9754 166.181 31.9184 165.733 32.2711C165.563 32.414 165.307 33.0198 165.331 33.2242C165.411 33.4632 165.346 33.7139 165.171 33.8945C164.995 34.0759 164.728 34.1296 164.488 34.0564C163.325 33.7064 163.055 33.7259 162.561 34.1883C162.433 34.3084 162.336 34.7149 162.27 34.9833C162.154 35.4646 162.034 35.9631 161.606 36.2162C161.08 36.5269 160.628 36.7493 159.586 36.7862C159.578 36.7867 159.57 36.7867 159.561 36.7862Z" fill="white"/>
<path d="M27.7045 44.3012C27.9385 44.7707 28.3136 45.0059 28.8299 45.0067C29.4402 45.0075 30.0983 44.3513 30.0991 43.7414C30.0994 43.6006 30.0526 43.4594 30.0058 43.2719L16.6711 12.6478C16.3905 12.0374 15.9213 11.7079 15.3111 11.7072C14.7011 11.7063 14.2781 12.0343 13.9955 12.6442L0.527377 43.277C0.48026 43.4649 0.433154 43.6053 0.432862 43.7464C0.432085 44.4505 0.947544 44.9673 1.65147 44.9685C2.16781 44.969 2.49686 44.7352 2.73235 44.266L7.34762 33.57L23.1194 33.5923L27.7045 44.3012ZM22.0903 31.1499L8.3836 31.1307L15.2593 15.2744L22.0903 31.1499Z" fill="white"/>
<path d="M31.88 12.5763C31.552 12.0598 31.1769 11.8246 30.7074 11.8237C29.9565 11.8229 29.4392 12.3852 29.4382 13.0896C29.4379 13.3243 29.4847 13.5589 29.6249 13.7938L40.1162 30.4253L40.0975 43.7564C40.0965 44.4605 40.6587 45.0247 41.3629 45.0256C42.1141 45.0266 42.6781 44.4644 42.6792 43.7602L42.6979 30.4291L53.4239 13.6864C53.5652 13.4521 53.6591 13.2174 53.6597 12.9828C53.6604 12.3726 53.0982 11.8554 52.4877 11.8546C52.0184 11.854 51.5957 12.0882 51.2663 12.6039L41.5279 27.9865L31.88 12.5763ZM80.1835 44.3763C80.4179 44.8461 80.7929 45.0812 81.3092 45.082C81.9195 45.0828 82.5777 44.4267 82.5782 43.8164C82.5785 43.6756 82.532 43.5347 82.4851 43.3469L69.1505 12.7231C68.8696 12.1123 68.4006 11.783 67.7904 11.7821C67.1802 11.7813 66.7575 12.1093 66.4747 12.7193L53.0067 43.3521C52.9593 43.5399 52.9123 43.6806 52.9123 43.8216C52.9113 44.5255 53.4267 45.0424 54.1308 45.0438C54.6472 45.0443 54.9762 44.8102 55.2114 44.341L59.8268 33.6452L75.5988 33.6676L80.1835 44.3763ZM74.5694 31.225L60.8628 31.206L67.7386 15.3497L74.5694 31.225ZM104.093 32.8629C104.28 33.0975 104.514 33.2388 104.843 33.2391C105.172 33.2399 105.453 33.0992 105.689 32.818L117.587 16.8282L117.549 43.8656C117.548 44.5699 118.11 45.1338 118.815 45.1346C119.566 45.1365 120.13 44.5734 120.131 43.8692L120.174 13.2174C120.175 12.4664 119.612 11.9493 119.002 11.9483C118.439 11.9477 117.828 12.4163 117.169 13.354L104.941 30.0475L92.1504 13.2249C91.4477 12.3321 90.885 11.9085 90.3686 11.908C89.6642 11.9071 89.1003 12.5634 89.0992 13.2673L89.0563 43.8254C89.0553 44.5297 89.6177 45.0936 90.3686 45.0947C91.0729 45.0955 91.6371 44.5332 91.6379 43.829L91.6762 16.7915L104.093 32.8629ZM134.303 13.1905C134.304 12.5802 133.694 11.9691 133.084 11.9684C132.286 11.9674 131.722 12.4828 131.721 13.1869L131.678 43.8857C131.677 44.5897 132.239 45.1536 132.99 45.1547C133.695 45.1557 134.258 44.5935 134.259 43.8894L134.303 13.1905Z" fill="white"/>
<path d="M46.727 53.4434C46.7273 53.2768 46.5921 53.1409 46.4255 53.1408C45.6124 53.1187 45.1747 53.1076 45.1119 53.1076C44.226 53.1066 43.5484 53.3241 43.0789 53.7614C42.6091 54.1984 42.3788 54.7611 42.378 55.4385C42.3771 56.4287 43.0739 57.2011 43.9592 57.4939L42.0274 60.0971C41.996 60.1285 41.9855 60.1804 41.9855 60.2325C41.9852 60.3578 42.0894 60.4831 42.2249 60.4831C42.3394 60.4831 42.4229 60.4416 42.4961 60.3482L44.5221 57.5784L46.1482 57.5804L46.1443 60.2069C46.144 60.3633 46.2691 60.4886 46.436 60.4889C46.5921 60.4889 46.7174 60.3642 46.7177 60.2077L46.727 53.4434ZM44.4499 57.0362C44.0641 56.9731 43.7204 56.785 43.4293 56.4821C43.1273 56.1795 42.9822 55.8251 42.9827 55.4079C42.9837 54.3761 43.7042 53.6477 45.007 53.6496C45.1843 53.6496 45.5699 53.6606 46.1537 53.6823L46.1488 57.0384L44.4499 57.0362Z" fill="white"/>
<path d="M54.7115 53.4541C54.7118 53.2875 54.5766 53.1518 54.4097 53.1515L49.3441 53.1447C49.1775 53.1447 49.0417 53.2799 49.0415 53.4465L49.0318 60.2008C49.0315 60.3572 49.1565 60.4824 49.3129 60.4827C49.4796 60.483 49.6049 60.358 49.6051 60.2016L49.6139 53.6873L54.1375 53.694L54.1287 60.2084C54.1284 60.3648 54.2532 60.4901 54.4201 60.4904C54.5765 60.4907 54.7018 60.3657 54.7018 60.2092L54.7115 53.4541Z" fill="white"/>
<path d="M56.4269 56.8031C56.426 57.887 56.7786 58.7838 57.4761 59.483C58.1733 60.193 59.038 60.5485 60.0801 60.5502C61.1224 60.5511 61.9986 60.1985 62.6979 59.48C63.3973 58.7726 63.7426 57.887 63.744 56.8135C63.7459 55.7293 63.4031 54.8325 62.7056 54.1228C62.008 53.4236 61.1331 53.0678 60.0908 53.0664C59.0383 53.0645 58.1726 53.4181 57.4731 54.1363C56.7739 54.8545 56.4286 55.7401 56.4269 56.8031ZM57.0317 56.8039C57.0327 55.8866 57.3257 55.1262 57.9104 54.5122C58.495 53.9086 59.2251 53.6071 60.09 53.6084C60.9553 53.6094 61.674 53.913 62.2671 54.5182C62.8501 55.134 63.141 55.8952 63.1395 56.8127C63.1386 57.7192 62.8455 58.4799 62.2713 59.0939C61.6971 59.708 60.9671 60.0093 60.0809 60.0082C59.2159 60.0072 58.4972 59.7036 57.9142 59.0879C57.3211 58.4718 57.0303 57.7107 57.0317 56.8039ZM71.1701 53.4261C71.1701 53.2904 71.0349 53.1548 70.8995 53.1545C70.7224 53.1543 70.5971 53.2689 70.5969 53.4253L70.5929 56.4792L66.0379 56.4734L66.0418 53.4192C66.0421 53.2837 65.9069 53.1479 65.7711 53.1479C65.5941 53.1476 65.4687 53.2622 65.4687 53.4186L65.459 60.235C65.4587 60.3914 65.5837 60.5168 65.7401 60.5171C65.9068 60.5174 66.0318 60.3923 66.0323 60.2359L66.0371 57.0153L70.5922 57.0221L70.5873 60.2429C70.5871 60.3993 70.7121 60.5245 70.8787 60.5245C71.0351 60.5248 71.1604 60.3998 71.1607 60.2434L71.1701 53.4261ZM78.2046 54.0716C78.2567 54.103 78.2983 54.1135 78.3297 54.1135C78.4236 54.1137 78.4966 54.0718 78.5489 53.9886C78.58 53.9367 78.5907 53.8846 78.5907 53.8532C78.591 53.7596 78.5491 53.6866 78.4765 53.6343C77.966 53.2686 77.289 53.0907 76.4654 53.0893C75.392 53.0883 74.5262 53.4412 73.8689 54.1489C73.211 54.8671 72.8866 55.7527 72.8852 56.8264C72.8832 57.9624 73.2156 58.8698 73.8923 59.548C74.5688 60.2266 75.4437 60.5718 76.5381 60.5733C77.2992 60.5743 78.1125 60.315 78.6447 59.8989C78.7075 59.8465 78.7387 59.7843 78.739 59.7008C78.739 59.6486 78.718 59.6073 78.6869 59.5549C78.6243 59.4819 78.5619 59.4506 78.4889 59.4503C78.4368 59.4503 78.3848 59.4712 78.3325 59.5021C77.8211 59.8559 77.2372 60.0324 76.5807 60.0313C75.6635 60.0304 74.9238 59.7372 74.3516 59.1424C73.7791 58.5473 73.4882 57.7755 73.4897 56.8273C73.4907 55.8996 73.7736 55.1285 74.3268 54.5246C74.8801 53.9317 75.5892 53.6302 76.4753 53.6312C77.1632 53.6322 77.7363 53.7791 78.2046 54.0716ZM84.6163 60.418C84.6994 60.5017 84.7829 60.5433 84.856 60.5435C84.9914 60.5438 85.1062 60.4187 85.1062 60.2833C85.1065 60.2101 85.0856 60.1371 85.0338 60.085L81.8385 56.6409L84.8865 53.6224C84.949 53.5599 84.9804 53.4873 84.9804 53.4142C84.9807 53.2892 84.8765 53.1744 84.7515 53.1742C84.6579 53.1739 84.5745 53.2157 84.5012 53.2884L81.3699 56.463C81.2551 56.5984 81.2548 56.765 81.369 56.9008L84.6163 60.418ZM80.8216 53.4396C80.8219 53.3041 80.6867 53.1683 80.551 53.168C80.3739 53.1677 80.2485 53.2824 80.2485 53.4388L80.2388 60.2554C80.2385 60.4119 80.3633 60.5369 80.5302 60.5375C80.6866 60.5377 80.8116 60.4127 80.8122 60.2563L80.8216 53.4396Z" fill="white"/>
<path d="M91.7754 60.3964C91.8275 60.5008 91.9107 60.5531 92.0255 60.5531C92.161 60.5534 92.3072 60.4077 92.3072 60.272C92.3072 60.2408 92.297 60.2097 92.2865 60.1678L89.3254 53.3679C89.2632 53.2325 89.1591 53.1592 89.0237 53.159C88.8881 53.1587 88.7942 53.2316 88.7314 53.3671L85.7408 60.1692C85.7303 60.2108 85.7198 60.242 85.7198 60.2734C85.7198 60.4298 85.8342 60.5446 85.9906 60.5446C86.1052 60.5449 86.1781 60.4928 86.2305 60.3888L87.2552 58.0136L90.7574 58.0185L91.7754 60.3964ZM90.5289 57.4763L87.4853 57.4714L89.0121 53.9507L90.5289 57.4763Z" fill="white"/>
<path d="M97.7683 53.5157C97.7686 53.349 97.6334 53.2132 97.4665 53.2129C96.6536 53.191 96.216 53.1799 96.1533 53.1799C95.2674 53.1789 94.5897 53.3963 94.1201 53.8337C93.6503 54.2707 93.4201 54.8333 93.4192 55.511C93.4183 56.5013 94.1152 57.2734 95.0008 57.5661L93.0687 60.1696C93.0373 60.2008 93.0269 60.2527 93.0269 60.3051C93.0266 60.4301 93.1307 60.5551 93.2661 60.5554C93.381 60.5556 93.4642 60.5141 93.5375 60.4205L95.5634 57.6507L97.1892 57.6527L97.1854 60.2792C97.1851 60.4356 97.3101 60.561 97.477 60.5613C97.6331 60.5616 97.7584 60.4365 97.7587 60.2801L97.7683 53.5157ZM95.4912 57.1085C95.1057 57.0454 94.762 56.8573 94.4704 56.5544C94.1686 56.2521 94.0232 55.8974 94.0238 55.4805C94.0257 54.4484 94.7455 53.72 96.0483 53.7219C96.2256 53.7219 96.6112 53.7329 97.1947 53.7546L97.1898 57.111L95.4912 57.1085ZM106.9 60.4497C106.983 60.5331 107.066 60.575 107.139 60.5753C107.275 60.5753 107.39 60.4502 107.39 60.3147C107.39 60.2417 107.369 60.1688 107.317 60.1167L104.122 56.6723L107.17 53.6541C107.232 53.5916 107.264 53.5187 107.264 53.4457C107.264 53.3207 107.16 53.2058 107.035 53.2058C106.941 53.2056 106.858 53.2471 106.784 53.3201L103.653 56.4947C103.538 56.6302 103.538 56.7967 103.653 56.9325L106.9 60.4497ZM103.105 53.4712C103.105 53.3358 102.97 53.2 102.834 53.1997C102.657 53.1994 102.532 53.3138 102.532 53.4702L102.522 60.2869C102.522 60.4433 102.647 60.5686 102.813 60.5688C102.97 60.5691 103.095 60.4444 103.095 60.288L103.105 53.4712ZM108.609 53.3537C108.557 53.26 108.474 53.2075 108.359 53.2075C108.192 53.2072 108.088 53.3427 108.088 53.4782C108.088 53.5407 108.098 53.593 108.129 53.6242L111.249 58.788L111.113 59.0797C110.799 59.7254 110.455 60.0479 110.08 60.0474C109.955 60.0474 109.83 60.0264 109.715 59.9741C109.684 59.9636 109.653 59.9531 109.6 59.9531C109.496 59.9528 109.423 60.0052 109.381 60.109C109.371 60.161 109.36 60.2029 109.36 60.2134C109.36 60.3279 109.412 60.4114 109.506 60.4637C109.662 60.5367 109.85 60.5787 110.089 60.579C110.788 60.58 111.247 60.0492 111.78 58.8824L114.164 53.6015C114.185 53.5597 114.195 53.5181 114.195 53.4765C114.196 53.3201 114.081 53.2155 113.915 53.2155C113.81 53.2152 113.727 53.2777 113.675 53.3923L111.531 58.215L108.609 53.3537ZM115.478 53.3738C115.395 53.2697 115.301 53.2174 115.207 53.2171C115.071 53.2168 114.946 53.3523 114.946 53.4878C114.946 53.5398 114.967 53.5817 114.998 53.6341L117.36 56.8265L114.864 60.1586C114.749 60.2938 114.821 60.5859 115.082 60.5862C115.176 60.5862 115.259 60.5342 115.343 60.4196L117.724 57.2648L120.096 60.437C120.169 60.5411 120.252 60.5934 120.345 60.5937C120.512 60.5939 120.638 60.4689 120.638 60.3125C120.638 60.2605 120.617 60.2189 120.586 60.1666L118.1 56.8276L120.48 53.6522C120.512 53.5999 120.533 53.5478 120.533 53.4958C120.533 53.3603 120.419 53.2245 120.252 53.2243C120.158 53.224 120.064 53.2763 119.991 53.3804L117.736 56.3895L115.478 53.3738ZM127.954 53.5062C127.954 53.3708 127.819 53.235 127.684 53.2347C127.506 53.2344 127.381 53.349 127.381 53.5055L127.376 56.5594L122.821 56.5536L122.825 53.4996C122.825 53.3638 122.69 53.2283 122.555 53.2281C122.377 53.2278 122.252 53.3423 122.252 53.4988L122.242 60.3155C122.242 60.4719 122.367 60.5972 122.523 60.5972C122.69 60.5975 122.815 60.4725 122.816 60.3161L122.821 57.0954L127.376 57.1022L127.371 60.3231C127.371 60.4795 127.496 60.6047 127.662 60.6047C127.819 60.605 127.944 60.4802 127.944 60.3238L127.954 53.5071L127.954 53.5062Z" fill="white"/>
<path d="M134.279 53.5673C134.28 53.4007 134.144 53.2649 133.978 53.2646C133.165 53.2426 132.727 53.2315 132.665 53.2315C131.779 53.2306 131.101 53.448 130.631 53.8854C130.162 54.3226 129.931 54.885 129.931 55.5624C129.929 56.5526 130.627 57.325 131.512 57.618L129.58 60.2209C129.549 60.2524 129.538 60.3044 129.538 60.3567C129.538 60.4818 129.642 60.6071 129.777 60.6071C129.892 60.6073 129.975 60.5655 130.049 60.4721L132.074 57.7024L133.701 57.7043L133.697 60.3309C133.697 60.4873 133.821 60.6126 133.988 60.6129C134.144 60.6129 134.27 60.4881 134.27 60.3317L134.279 53.5673ZM132.002 57.1601C131.617 57.097 131.273 56.909 130.982 56.6064C130.68 56.3034 130.535 55.949 130.535 55.5318C130.537 54.5 131.257 53.7716 132.56 53.7735C132.737 53.7738 133.122 53.7848 133.706 53.8063L133.701 57.1626L132.002 57.1601Z" fill="white"/>
</svg>
