<svg width="131" height="40" viewBox="0 0 131 40" fill="none" xmlns="http://www.w3.org/2000/svg">
<path d="M128.187 21.0806C128.058 21.0806 127.925 21.129 127.81 21.2402C125.893 23.0966 121.43 26.3513 113.706 26.3409C105.928 26.3299 101.475 23.0817 99.5651 21.2271C99.4506 21.1159 99.3177 21.0669 99.1883 21.0669C98.86 21.0665 98.5528 21.3793 98.6296 21.7895C99.5655 26.8288 104.115 35.0792 113.693 35.0923C123.202 35.1051 127.792 26.8591 128.745 21.8051C128.821 21.3952 128.516 21.0809 128.187 21.0806ZM126.914 23.4826C126.164 25.8244 124.94 27.7526 123.272 29.5807C122.125 30.8375 120.541 31.8477 119.1 32.5353C117.456 33.3191 115.637 33.7152 113.693 33.7123C111.734 33.7098 109.904 33.309 108.254 32.5207C106.808 31.8305 105.162 30.8026 104.017 29.5444C102.356 27.7192 101.392 25.873 100.533 23.5633C102.659 25.3991 106.974 27.5658 113.633 27.575C120.246 27.5836 124.78 25.3221 126.914 23.4826Z" fill="#E42A2B"/>
<path d="M105.669 18.6963C102.242 18.8198 104.718 16.2347 102.482 16.2317C101.553 16.2304 100.175 18.4374 100.28 19.1672C100.425 20.1852 104.58 21.703 105.541 22.0202C105.929 22.1485 106.346 22.1455 106.73 22.0076C107.972 21.5626 109.437 20.5313 109.437 19.9428C109.44 18.159 107.19 18.6416 105.669 18.6963Z" fill="#E42A2B"/>
<path d="M106.129 13.0386C105.98 13.0383 105.838 12.9454 105.774 12.7899L100.927 0.970729C100.841 0.760515 100.931 0.515066 101.126 0.422752C101.323 0.330058 101.551 0.425297 101.638 0.636018L106.484 12.4548C106.57 12.6654 106.482 12.9109 106.285 13.0032C106.234 13.0273 106.181 13.0386 106.129 13.0386Z" fill="#E42A2B"/>
<path d="M104.52 13.7329C104.427 13.7329 104.335 13.698 104.261 13.6266L95.3057 4.99678C95.1467 4.84327 95.1335 4.58017 95.277 4.40957C95.4196 4.2384 95.665 4.22438 95.8244 4.37809L104.78 13.0078C104.939 13.161 104.952 13.4245 104.808 13.5951C104.732 13.6865 104.626 13.7335 104.52 13.7329Z" fill="#E42A2B"/>
<path d="M108.904 15.6029C108.312 15.5762 108.4 15.5246 108.4 14.7936C108.402 14.0058 107.994 13.4699 107.099 13.469C105.519 13.4671 103.204 16.4783 104.302 17.5032C105.342 18.4738 106.978 17.9092 110.162 18.3176C112.458 18.612 115.174 17.7017 114.008 16.6138C113.395 16.0413 110.801 15.6896 108.904 15.6029Z" fill="#E42A2B"/>
<path d="M111.675 12.8075C114.335 12.8113 111.155 14.3462 115.461 14.3518C116.317 14.3531 118.116 15.5979 117.067 16.2849C115.727 17.1628 114.928 16.0656 113.04 15.67C111.292 15.3042 109.586 15.1584 109.207 14.7891C108.293 13.8993 110.33 12.8057 111.675 12.8075Z" fill="#E42A2B"/>
<path d="M113.751 13.5938C113.128 12.8534 115.09 11.9536 116.607 12.4292C118.984 13.1741 121.275 14.309 121.227 15.581C121.207 16.1314 120.651 16.9195 119.855 16.8914C118.345 16.8381 117.766 14.1465 116.5 14.1015C115.442 14.0642 114.289 14.2336 113.751 13.5938Z" fill="#E42A2B"/>
<path d="M129.92 15.8421C129.039 16.58 126.6 15.5104 125.953 15.2059C125.866 15.1652 125.835 15.0623 125.882 14.9801C128.006 11.2478 124.887 7.00663 125.288 8.90966C125.693 10.8378 123.352 12.5101 122.42 13.8943C121.862 14.7233 121.74 16.9201 122.183 17.1284C122.415 17.2374 122.671 17.0926 122.671 16.8431C122.672 16.7353 122.802 15.128 123.355 14.808C123.861 14.5148 123.448 15.7946 123.168 16.5555C123.07 16.8233 123.275 17.1047 123.568 17.1032C123.991 17.1006 124.513 17.0698 124.698 17.0981C126.303 17.3452 124.813 18.0791 124.188 18.0784C123.969 18.0779 123.935 18.3952 124.097 18.5522C124.29 18.7414 124.82 18.982 125.083 19.0227C128.453 19.5414 130.94 14.9883 129.92 15.8421Z" fill="#E42A2B"/>
<path d="M107.267 24.429C107.023 24.429 106.821 24.2417 106.813 24.003C106.804 23.7593 107.001 23.5549 107.252 23.5463C107.736 23.5295 107.903 23.4534 108.125 23.3274C108.151 23.2626 108.183 23.1334 108.206 23.0434C108.283 22.7323 108.379 22.3453 108.664 22.0872C109.222 21.5785 109.717 21.5365 110.313 21.6613C110.425 21.2971 110.649 20.9444 110.857 20.7852C111.321 20.4294 111.957 20.3544 112.63 20.5593C112.826 20.1435 113.258 19.8153 113.728 19.6535C114.44 19.4074 115.038 19.5912 115.459 19.8684C115.716 19.3891 116.186 18.8044 116.991 18.6473C118.161 18.4192 118.862 18.793 119.234 19.2385C119.605 18.9483 120.161 18.6311 120.926 18.6464C122.435 18.666 122.886 19.3344 123.248 19.8709C123.308 19.9589 123.367 20.0469 123.432 20.1322C123.486 20.2026 123.683 20.2591 123.872 20.3138C124.421 20.4718 125.252 20.7102 125.637 21.9278C125.711 22.161 125.576 22.4078 125.336 22.4798C125.096 22.5516 124.842 22.4201 124.768 22.1873C124.526 21.4228 124.103 21.3011 123.614 21.1606C123.297 21.0692 122.937 20.9658 122.702 20.6586C122.626 20.5598 122.557 20.4572 122.488 20.3554C122.17 19.8835 121.94 19.5432 120.913 19.5295C120.907 19.5291 120.9 19.5291 120.894 19.5291C120.03 19.5279 119.491 20.2285 119.486 20.2355C119.379 20.3759 119.198 20.4434 119.022 20.407C118.846 20.3703 118.709 20.2377 118.672 20.0669C118.64 19.9382 118.407 19.2718 117.17 19.5133C116.355 19.6722 116.079 20.7322 116.077 20.7432C116.036 20.9151 115.893 21.0468 115.714 21.078C115.534 21.1089 115.354 21.0328 115.254 20.8857C115.208 20.8206 114.769 20.231 114.032 20.4857C113.668 20.6114 113.39 20.8933 113.438 21.0889C113.48 21.2587 113.414 21.4368 113.271 21.5427C113.129 21.6486 112.934 21.6621 112.776 21.5781C112.228 21.2849 111.722 21.2477 111.42 21.4782C111.305 21.5716 111.133 21.9675 111.15 22.1011C111.203 22.2573 111.16 22.4211 111.042 22.5391C110.923 22.6577 110.744 22.6928 110.582 22.6449C109.799 22.4162 109.618 22.429 109.286 22.7312C109.199 22.8096 109.134 23.0753 109.09 23.2507C109.011 23.5653 108.93 23.8911 108.642 24.0565C108.289 24.2595 107.984 24.4049 107.283 24.429C107.278 24.4293 107.273 24.4293 107.267 24.429Z" fill="#E42A2B"/>
<path d="M18.5286 29.3402C18.6861 29.6471 18.9385 29.8008 19.286 29.8014C19.6967 29.8019 20.1396 29.373 20.1402 28.9744C20.1404 28.8824 20.1089 28.7901 20.0774 28.6676L11.1033 8.65359C10.9144 8.25462 10.5986 8.03934 10.188 8.03883C9.77744 8.03826 9.49277 8.2526 9.30258 8.65125L0.238657 28.6709C0.206948 28.7937 0.175246 28.8855 0.175049 28.9777C0.174526 29.4378 0.521426 29.7756 0.995165 29.7764C1.34266 29.7767 1.5641 29.6239 1.72258 29.3173L4.82862 22.327L15.4429 22.3416L18.5286 29.3402ZM14.7503 20.7454L5.52583 20.7329L10.1531 10.3702L14.7503 20.7454Z" fill="#3A3839"/>
<path d="M21.339 8.60679C21.1183 8.26921 20.8659 8.11551 20.5499 8.11494C20.0445 8.11443 19.6964 8.48191 19.6957 8.94227C19.6955 9.0956 19.727 9.24892 19.8213 9.40244L26.8819 20.2718L26.8693 28.9841C26.8687 29.4443 27.247 29.813 27.7209 29.8136C28.2264 29.8142 28.6061 29.4468 28.6068 28.9867L28.6194 20.2743L35.8378 9.33228C35.933 9.17914 35.9961 9.02575 35.9965 8.87242C35.9971 8.47365 35.6186 8.13564 35.2078 8.13513C34.892 8.13475 34.6075 8.28776 34.3858 8.62482L27.8319 18.6779L21.339 8.60679ZM53.8469 29.3892C54.0046 29.6963 54.257 29.8499 54.6045 29.8505C55.0152 29.851 55.4581 29.4222 55.4585 29.0234C55.4587 28.9314 55.4273 28.8392 55.3958 28.7165L46.4217 8.70271C46.2327 8.30356 45.9171 8.08833 45.5064 8.08776C45.0957 8.08725 44.8112 8.3016 44.6209 8.70025L35.5571 28.7199C35.5252 28.8427 35.4936 28.9346 35.4936 29.0268C35.4929 29.4868 35.8398 29.8246 36.3136 29.8255C36.6611 29.8259 36.8825 29.6729 37.0408 29.3662L40.1469 22.3761L50.7614 22.3907L53.8469 29.3892ZM50.0686 20.7944L40.8442 20.782L45.4716 10.4193L50.0686 20.7944ZM69.9376 21.8648C70.0636 22.0182 70.2213 22.1105 70.4426 22.1107C70.6637 22.1113 70.8533 22.0193 71.0115 21.8355L79.0192 11.3855L78.9934 29.0555C78.9928 29.5158 79.3713 29.8843 79.8454 29.8849C80.3507 29.8861 80.7303 29.5181 80.731 29.0579L80.7601 9.02576C80.7607 8.53499 80.3821 8.19703 79.9713 8.19634C79.5923 8.19596 79.1813 8.50222 78.738 9.11502L70.5087 20.0249L61.9005 9.03064C61.4275 8.44718 61.0489 8.17036 60.7014 8.17004C60.2273 8.16941 59.8478 8.59834 59.847 9.05839L59.8182 29.0293C59.8175 29.4895 60.196 29.8581 60.7014 29.8588C61.1753 29.8593 61.555 29.4919 61.5556 29.0316L61.5813 11.3616L69.9376 21.8648ZM90.2685 9.00817C90.2692 8.60933 89.8591 8.20998 89.4485 8.20947C88.9114 8.20884 88.5318 8.54565 88.5313 9.00582L88.5022 29.0687C88.5015 29.5287 88.8801 29.8973 89.3854 29.898C89.8593 29.8986 90.2389 29.5312 90.2394 29.071L90.2685 9.00817Z" fill="#3A3839"/>
<path d="M31.331 35.315C31.3312 35.2061 31.2402 35.1173 31.1281 35.1172C30.5808 35.1028 30.2863 35.0955 30.2441 35.0955C29.6479 35.0949 29.1918 35.237 28.8758 35.5228C28.5596 35.8084 28.4047 36.1761 28.4042 36.6188C28.4035 37.266 28.8725 37.7708 29.4683 37.9621L28.1682 39.6634C28.1471 39.6839 28.14 39.7179 28.14 39.7519C28.1398 39.8338 28.2099 39.9157 28.3011 39.9157C28.3782 39.9157 28.4344 39.8886 28.4837 39.8275L29.8471 38.0174L30.9415 38.0187L30.9389 39.7352C30.9387 39.8374 31.0228 39.9193 31.1351 39.9195C31.2402 39.9195 31.3245 39.838 31.3247 39.7357L31.331 35.315ZM29.7985 37.663C29.5389 37.6218 29.3076 37.4989 29.1117 37.3009C28.9084 37.1031 28.8108 36.8715 28.8111 36.5989C28.8117 35.9245 29.2966 35.4485 30.1734 35.4498C30.2928 35.4498 30.5523 35.4569 30.9451 35.4711L30.9419 37.6644L29.7985 37.663Z" fill="#3A3839"/>
<path d="M36.7048 35.322C36.705 35.2131 36.614 35.1244 36.5017 35.1242L33.0926 35.1198C32.9805 35.1198 32.8891 35.2081 32.889 35.317L32.8824 39.7312C32.8823 39.8334 32.9664 39.9152 33.0717 39.9154C33.1838 39.9156 33.2681 39.8339 33.2683 39.7317L33.2742 35.4743L36.3185 35.4788L36.3126 39.7361C36.3124 39.8384 36.3964 39.9203 36.5087 39.9205C36.614 39.9206 36.6983 39.8389 36.6983 39.7367L36.7048 35.322Z" fill="#3A3839"/>
<path d="M37.8584 37.5112C37.8577 38.2195 38.0951 38.8057 38.5645 39.2626C39.0337 39.7266 39.6157 39.9589 40.3169 39.96C41.0184 39.9607 41.6081 39.7302 42.0787 39.2606C42.5494 38.7983 42.7818 38.2195 42.7827 37.518C42.784 36.8094 42.5533 36.2233 42.0839 35.7595C41.6144 35.3026 41.0256 35.07 40.3242 35.0691C39.6159 35.0678 39.0332 35.2989 38.5625 35.7683C38.0919 36.2377 37.8595 36.8165 37.8584 37.5112ZM38.2654 37.5117C38.266 36.9122 38.4633 36.4153 38.8567 36.014C39.2502 35.6195 39.7415 35.4224 40.3236 35.4233C40.9059 35.424 41.3896 35.6224 41.7888 36.0179C42.1811 36.4204 42.3769 36.9178 42.3759 37.5175C42.3753 38.1099 42.178 38.607 41.7916 39.0083C41.4052 39.4096 40.9139 39.6065 40.3175 39.6058C39.7354 39.6052 39.2517 39.4068 38.8593 39.0044C38.4601 38.6017 38.2645 38.1043 38.2654 37.5117ZM47.7804 35.3042C47.7804 35.2155 47.6894 35.1269 47.5983 35.1267C47.4791 35.1265 47.3948 35.2014 47.3946 35.3036L47.392 37.2995L44.3265 37.2957L44.3291 35.2996C44.3293 35.2111 44.2383 35.1224 44.1469 35.1224C44.0278 35.1222 43.9434 35.197 43.9434 35.2993L43.9369 39.7541C43.9367 39.8563 44.0208 39.9382 44.1261 39.9384C44.2382 39.9386 44.3224 39.8569 44.3227 39.7546L44.326 37.6498L47.3915 37.6543L47.3882 39.7592C47.3881 39.8614 47.4722 39.9433 47.5843 39.9433C47.6896 39.9435 47.7739 39.8617 47.7741 39.7595L47.7804 35.3042ZM52.5146 35.726C52.5497 35.7465 52.5776 35.7534 52.5988 35.7534C52.662 35.7535 52.7111 35.7262 52.7463 35.6718C52.7672 35.6378 52.7744 35.6038 52.7744 35.5833C52.7746 35.5221 52.7465 35.4744 52.6975 35.4402C52.354 35.2012 51.8984 35.085 51.3441 35.084C50.6217 35.0834 50.039 35.3141 49.5967 35.7766C49.1539 36.246 48.9356 36.8247 48.9346 37.5264C48.9333 38.2688 49.1571 38.8619 49.6124 39.3051C50.0677 39.7486 50.6565 39.9742 51.393 39.9751C51.9053 39.9758 52.4526 39.8063 52.8108 39.5344C52.853 39.5002 52.874 39.4595 52.8742 39.4049C52.8742 39.3708 52.8601 39.3438 52.8392 39.3096C52.797 39.2619 52.755 39.2414 52.7059 39.2412C52.6709 39.2412 52.6358 39.2549 52.6007 39.275C52.2565 39.5063 51.8636 39.6216 51.4217 39.6209C50.8044 39.6203 50.3066 39.4287 49.9215 39.04C49.5363 38.6511 49.3405 38.1466 49.3415 37.527C49.3421 36.9207 49.5325 36.4167 49.9049 36.0221C50.2772 35.6346 50.7544 35.4375 51.3508 35.4382C51.8137 35.4389 52.1994 35.5349 52.5146 35.726ZM56.8296 39.8736C56.8856 39.9283 56.9417 39.9555 56.9909 39.9556C57.082 39.9558 57.1593 39.8741 57.1593 39.7856C57.1595 39.7378 57.1454 39.6901 57.1106 39.656L54.9602 37.4051L57.0114 35.4325C57.0535 35.3916 57.0746 35.3442 57.0746 35.2964C57.0748 35.2147 57.0047 35.1397 56.9206 35.1395C56.8576 35.1393 56.8015 35.1667 56.7521 35.2142L54.6448 37.2889C54.5675 37.3774 54.5673 37.4863 54.6442 37.575L56.8296 39.8736ZM54.2758 35.313C54.276 35.2244 54.185 35.1357 54.0937 35.1355C53.9745 35.1353 53.8901 35.2103 53.8901 35.3125L53.8836 39.7674C53.8834 39.8697 53.9673 39.9513 54.0797 39.9517C54.1849 39.9519 54.2691 39.8702 54.2695 39.768L54.2758 35.313Z" fill="#3A3839"/>
<path d="M61.6481 39.859C61.6832 39.9272 61.7391 39.9615 61.8164 39.9615C61.9076 39.9617 62.006 39.8664 62.006 39.7777C62.006 39.7573 61.9991 39.737 61.9921 39.7097L59.9993 35.2657C59.9574 35.1771 59.8873 35.1293 59.7962 35.1291C59.705 35.1289 59.6418 35.1766 59.5995 35.2651L57.5869 39.7106C57.5798 39.7377 57.5728 39.7581 57.5728 39.7786C57.5728 39.8808 57.6497 39.9559 57.755 39.9559C57.8321 39.9561 57.8812 39.922 57.9164 39.854L58.606 38.3018L60.963 38.305L61.6481 39.859ZM60.8092 37.9506L58.7609 37.9474L59.7884 35.6465L60.8092 37.9506Z" fill="#3A3839"/>
<path d="M65.6812 35.3617C65.6814 35.2528 65.5904 35.1641 65.4781 35.1639C64.931 35.1495 64.6365 35.1423 64.5943 35.1423C63.9981 35.1416 63.542 35.2837 63.226 35.5696C62.9098 35.8551 62.7549 36.2228 62.7543 36.6658C62.7536 37.3129 63.2227 37.8175 63.8187 38.0088L62.5184 39.7103C62.4973 39.7307 62.4902 39.7646 62.4902 39.7989C62.49 39.8806 62.5601 39.9623 62.6513 39.9625C62.7285 39.9626 62.7846 39.9354 62.8339 39.8743L64.1973 38.0641L65.2915 38.0654L65.2889 39.782C65.2887 39.8842 65.3728 39.9661 65.4851 39.9663C65.5902 39.9665 65.6745 39.8848 65.6747 39.7825L65.6812 35.3617ZM64.1487 37.7097C63.8893 37.6685 63.658 37.5456 63.4617 37.3477C63.2586 37.1501 63.1608 36.9183 63.1612 36.6458C63.1625 35.9713 63.6469 35.4952 64.5237 35.4965C64.643 35.4965 64.9025 35.5037 65.2951 35.5179L65.2919 37.7114L64.1487 37.7097ZM71.8265 39.8933C71.8826 39.9479 71.9386 39.9752 71.9877 39.9754C72.0789 39.9754 72.1562 39.8937 72.1564 39.8051C72.1566 39.7575 72.1425 39.7098 72.1076 39.6758L69.9571 37.4247L72.0085 35.4522C72.0503 35.4113 72.0716 35.3637 72.0716 35.316C72.0716 35.2343 72.0018 35.1592 71.9177 35.1592C71.8545 35.159 71.7983 35.1862 71.749 35.2339L69.6416 37.3086C69.5643 37.3972 69.5644 37.506 69.6413 37.5948L71.8265 39.8933ZM69.2728 35.3327C69.2728 35.2442 69.1819 35.1554 69.0907 35.1552C68.9715 35.1551 68.8872 35.2298 68.887 35.332L68.8805 39.787C68.8802 39.8892 68.9643 39.9711 69.0766 39.9712C69.1819 39.9714 69.266 39.8899 69.2662 39.7877L69.2728 35.3327ZM72.977 35.2559C72.942 35.1947 72.8858 35.1603 72.8087 35.1603C72.6964 35.1601 72.6262 35.2487 72.626 35.3372C72.626 35.3781 72.633 35.4122 72.654 35.4326L74.7535 38.8074L74.6622 38.998C74.4511 39.42 74.2192 39.6307 73.9667 39.6304C73.8825 39.6304 73.7984 39.6167 73.7212 39.5826C73.7001 39.5757 73.6792 39.5688 73.6442 39.5688C73.5739 39.5686 73.5248 39.6029 73.4967 39.6707C73.4896 39.7047 73.4825 39.7321 73.4825 39.7389C73.4824 39.8138 73.5174 39.8683 73.5804 39.9025C73.6857 39.9502 73.8119 39.9777 73.9731 39.9779C74.4431 39.9785 74.7523 39.6316 75.1112 38.8691L76.7156 35.4178C76.7297 35.3905 76.7365 35.3633 76.7365 35.3361C76.7367 35.2339 76.6596 35.1655 76.5475 35.1655C76.4774 35.1653 76.4213 35.2062 76.3861 35.2811L74.9433 38.4329L72.977 35.2559ZM77.5996 35.269C77.5436 35.201 77.4804 35.1668 77.4175 35.1666C77.3261 35.1664 77.2419 35.255 77.2417 35.3435C77.2417 35.3775 77.2557 35.4049 77.2768 35.4391L78.8659 37.5255L77.1863 39.7031C77.1091 39.7915 77.1578 39.9824 77.3331 39.9826C77.3963 39.9826 77.4524 39.9486 77.5088 39.8737L79.1111 37.8119L80.7074 39.8851C80.7565 39.9531 80.8125 39.9873 80.8754 39.9875C80.9878 39.9876 81.0721 39.9059 81.0723 39.8037C81.0723 39.7697 81.0584 39.7425 81.0374 39.7083L79.3639 37.5262L80.9663 35.451C80.9874 35.4167 81.0017 35.3827 81.0017 35.3487C81.0017 35.2602 80.9247 35.1714 80.8125 35.1713C80.7493 35.1711 80.6862 35.2053 80.6369 35.2733L79.119 37.2398L77.5996 35.269ZM85.9961 35.3555C85.9962 35.267 85.9051 35.1783 85.8139 35.1781C85.6947 35.1779 85.6104 35.2528 85.6102 35.355L85.6069 37.3509L82.5416 37.3471L82.5443 35.3512C82.5445 35.2625 82.4534 35.1739 82.3622 35.1738C82.2429 35.1736 82.1586 35.2484 82.1586 35.3507L82.152 39.8057C82.1518 39.9079 82.2358 39.9898 82.341 39.9898C82.4534 39.99 82.5377 39.9082 82.5379 39.806L82.5412 37.7012L85.6067 37.7057L85.6034 39.8106C85.6032 39.9128 85.6874 39.9947 85.7995 39.9947C85.9048 39.9949 85.9891 39.9133 85.9892 39.8111L85.9958 35.3561L85.9961 35.3555Z" fill="#3A3839"/>
<path d="M90.253 35.396C90.2534 35.2871 90.1622 35.1983 90.0501 35.1981C89.503 35.1838 89.2083 35.1765 89.1663 35.1765C88.5701 35.1759 88.1138 35.318 87.7978 35.6038C87.4818 35.8896 87.3269 36.2571 87.3263 36.6998C87.325 37.347 87.7946 37.8518 88.3904 38.0433L87.0902 39.7443C87.0693 39.7649 87.062 39.7989 87.062 39.8331C87.0619 39.9148 87.1319 39.9967 87.2231 39.9967C87.3004 39.9968 87.3564 39.9695 87.4056 39.9085L88.7691 38.0984L89.8635 38.0996L89.8608 39.8162C89.8608 39.9184 89.9448 40.0003 90.0571 40.0005C90.1622 40.0005 90.2465 39.919 90.2467 39.8168L90.253 35.396ZM88.7206 37.744C88.4611 37.7028 88.2298 37.5799 88.0337 37.3821C87.8304 37.1841 87.7327 36.9525 87.7331 36.6798C87.7344 36.0055 88.2186 35.5295 89.0956 35.5307C89.2148 35.5309 89.4742 35.5381 89.8672 35.5521L89.8639 37.7456L88.7206 37.744Z" fill="#3A3839"/>
</svg>
